<svg id="Layer_1" enable-background="new 0 0 511.941 511.941" height="512" viewBox="0 0 511.941 511.941" width="512" xmlns="http://www.w3.org/2000/svg"><g><path d="m192.291 357.303h127.359v117.187h-127.359z" fill="#0078a8"/><path d="m255.923 357.303h63.727v117.187h-63.727z" fill="#005f90"/><path d="m15 52.452h481.942v319.85h-481.942z" fill="#d7f0f0"/><path d="m255.923 52.452h241.019v319.85h-241.019z" fill="#b0e9e7"/><path d="m511.941 387.303h-511.941v-349.851h511.941zm-481.941-30h451.941v-289.851h-451.941z" fill="#004c75"/><g><path d="m135.543 444.489h240.855v30h-240.855z" fill="#004c75"/></g><path d="m366.474 227.377v-30h-30.281c-2.121-11.365-6.592-21.91-12.907-31.102l21.429-21.429-21.213-21.213-21.429 21.429c-9.192-6.315-19.737-10.786-31.102-12.907v-30.281h-30v30.281c-11.365 2.121-21.91 6.591-31.102 12.907l-21.429-21.429-21.213 21.213 21.429 21.429c-6.315 9.192-10.786 19.737-12.907 31.102h-30.281v30h30.281c2.121 11.365 6.592 21.91 12.907 31.102l-21.429 21.429 21.213 21.213 21.429-21.429c9.192 6.315 19.737 10.786 31.102 12.907v30.281h30v-30.281c11.365-2.121 21.91-6.591 31.102-12.907l21.429 21.429 21.213-21.213-21.429-21.429c6.315-9.192 10.786-19.737 12.907-31.102zm-110.503 36.627c-28.467 0-51.627-23.16-51.627-51.627s23.16-51.627 51.627-51.627 51.627 23.16 51.627 51.627-23.16 51.627-51.627 51.627z" fill="#ff8852"/><path d="m255.923 444.489h120.475v30h-120.475z" fill="#00385b"/><path d="m511.941 37.452h-256.018v30h226.018v289.851h-226.018v30h256.018z" fill="#00385b"/><path d="m366.474 227.377v-30h-30.281c-2.121-11.365-6.592-21.91-12.907-31.102l21.429-21.429-21.213-21.213-21.429 21.429c-9.192-6.315-19.737-10.786-31.102-12.907v-30.281h-15.047v58.877c.016 0 .032-.001.047-.001 28.467 0 51.627 23.16 51.627 51.627s-23.16 51.627-51.627 51.627c-.016 0-.031-.001-.047-.001v58.877h15.047v-30.281c11.365-2.121 21.91-6.591 31.102-12.907l21.429 21.429 21.213-21.213-21.429-21.429c6.315-9.192 10.786-19.737 12.907-31.102z" fill="#ff651d"/></g></svg>